<?xml version="1.0" standalone="no"?>
<!DOCTYPE svg PUBLIC "-//W3C//DTD SVG 20010904//EN"
 "http://www.w3.org/TR/2001/REC-SVG-20010904/DTD/svg10.dtd">
<svg version="1.0" xmlns="http://www.w3.org/2000/svg"
 width="270.000000pt" height="270.000000pt" viewBox="0 0 270.000000 270.000000"
 preserveAspectRatio="xMidYMid meet">
<metadata>
Created by potrace 1.11, written by Peter Selinger 2001-2013
</metadata>
<g transform="translate(0.000000,270.000000) scale(0.100000,-0.100000)"
fill="#000000" stroke="none">
<path d="M1229 2646 c-2 -2 -31 -6 -64 -9 -401 -41 -786 -317 -979 -705 -36
-71 -89 -217 -101 -277 -3 -16 -8 -41 -11 -55 -3 -14 -7 -36 -10 -50 -10 -46
-12 -304 -3 -369 13 -94 16 -104 44 -204 134 -469 550 -832 1043 -913 93 -15
318 -12 419 6 412 74 767 335 947 699 93 186 127 322 131 531 7 351 -96 654
-309 905 -53 63 -70 80 -151 149 -167 143 -389 242 -625 280 -75 12 -321 21
-331 12z m147 -118 c94 -74 209 -257 244 -387 25 -93 53 -108 160 -86 107 22
263 17 393 -13 4 -1 14 -2 22 -2 8 0 15 -5 15 -11 0 -5 -51 -85 -112 -177 -62
-91 -116 -174 -120 -183 -9 -22 -1 -30 67 -74 94 -60 177 -151 224 -247 45
-90 46 -94 67 -213 13 -73 20 -302 10 -312 -2 -3 -21 11 -43 30 -139 125 -312
220 -495 271 -133 37 -158 19 -223 -164 -31 -87 -62 -196 -69 -244 -4 -21 -8
-41 -10 -45 -2 -3 -7 -28 -10 -56 -4 -27 -9 -66 -12 -85 -4 -30 -13 -261 -14
-371 0 -48 -24 -59 -131 -64 -86 -3 -138 11 -140 38 0 6 -2 100 -4 207 -2 175
-9 236 -39 387 -18 90 -94 331 -117 375 -24 45 -75 50 -178 17 -123 -39 -265
-121 -406 -233 -39 -31 -73 -56 -77 -56 -15 0 -28 81 -29 167 0 94 2 112 25
213 13 55 50 133 94 197 36 52 63 81 194 204 30 29 37 41 30 58 -4 11 -55 89
-112 173 -58 83 -108 160 -112 169 -5 14 0 20 25 28 91 29 294 35 430 11 71
-12 79 -11 97 5 10 9 22 30 25 46 27 122 122 281 244 412 41 43 49 45 87 15z"/>
<path d="M1306 2224 c-27 -30 -126 -224 -126 -249 0 -20 38 -56 107 -102 l52
-34 75 51 c41 28 78 60 81 70 13 41 -117 290 -151 290 -7 0 -24 -12 -38 -26z"/>
<path d="M788 1898 l-27 -9 53 -72 c94 -128 177 -260 224 -359 26 -53 53 -99
60 -103 8 -3 42 -1 77 5 105 17 302 14 368 -6 32 -10 63 22 104 108 38 78 146
248 242 381 l42 57 -28 1 c-89 4 -201 -19 -300 -62 -46 -20 -163 -94 -174
-111 -12 -18 -74 -58 -90 -58 -9 0 -30 13 -45 28 -112 110 -233 169 -402 196
-49 8 -87 9 -104 4z"/>
<path d="M1872 1513 c-20 -8 -124 -172 -120 -191 2 -11 37 -28 113 -53 61 -20
137 -48 169 -63 43 -19 62 -23 67 -15 9 16 -17 102 -49 163 -47 86 -144 172
-180 159z"/>
<path d="M683 1443 c-71 -69 -116 -144 -126 -210 -8 -52 9 -54 113 -11 52 21
122 46 155 54 33 9 66 21 73 26 23 19 12 55 -41 129 -71 100 -83 101 -174 12z"/>
<path d="M1220 1203 c-32 -11 -38 -32 -25 -76 99 -318 135 -422 146 -422 8 0
35 71 72 190 76 242 85 281 69 297 -13 13 -231 22 -262 11z"/>
</g>
</svg>
