<?xml version="1.0" encoding="utf-8"?>
<!-- Generator: Adobe Illustrator 15.0.0, SVG Export Plug-In  -->
<!DOCTYPE svg PUBLIC "-//W3C//DTD SVG 1.1//EN" "http://www.w3.org/Graphics/SVG/1.1/DTD/svg11.dtd" [
	<!ENTITY ns_flows "http://ns.adobe.com/Flows/1.0/">
]>
<svg version="1.1"
	 xmlns="http://www.w3.org/2000/svg" xmlns:xlink="http://www.w3.org/1999/xlink" xmlns:a="http://ns.adobe.com/AdobeSVGViewerExtensions/3.0/"
	 x="0px" y="0px" width="277px" height="94px" viewBox="-8.72 -7.183 277 94"
	 overflow="visible" enable-background="new -8.72 -7.183 277 94" xml:space="preserve">
<defs>
</defs>
<rect x="259.754" y="39.053" fill="#2E62AB" width="0.291" height="5.794"/>
<path fill="#245BA6" d="M0,27.647C-0.069,12.779,11.845-0.891,29.249,0.111c15.07,0.868,25.757,13.073,25.688,27.953
	c-0.069,14.813-12.454,26.892-27.626,26.95C13.199,55.068,0.103,43.614,0,27.647 M48.668,38.962c0-0.878-0.017-1.403,0.002-1.925
	c0.227-6.426-1.318-11.983-7.468-15.295c-0.624-0.336-0.592-0.82-0.258-1.335c0.288-0.446,0.614-0.866,0.912-1.306
	c1.332-1.978,2.659-3.958,4.044-6.021c-3.502-0.926-6.826-1.086-10.113-0.352c-1.531,0.342-2.066-0.13-2.438-1.497
	c-0.903-3.328-2.616-6.196-5.153-8.562c-0.61-0.568-1.104-0.836-1.803-0.076c-2.375,2.587-4.435,5.362-5.319,8.827
	c-0.324,1.273-0.833,1.708-2.236,1.376c-3.043-0.719-6.125-0.536-9.196,0.011c-1.095,0.195-1.144,0.565-0.543,1.397
	c1.27,1.761,2.471,3.57,3.715,5.349c1.143,1.634,1.064,1.772-0.477,2.981C7.571,26.277,5.598,31.2,6.395,37.198
	c0.22,1.654,0.405,1.685,1.645,0.631c3.08-2.62,6.417-4.745,10.401-5.771c1.496-0.385,2.223,0.044,2.737,1.444
	c2.203,5.995,3.499,12.118,2.94,18.548c-0.131,1.504,0.482,2.119,2.017,2.118c0.386,0,0.771-0.032,1.157-0.051
	c2.904-0.153,2.889-0.152,2.797-3.068c-0.188-6.064,0.854-11.896,3.247-17.491c0.543-1.27,1.237-1.804,2.651-1.492
	c2.134,0.471,4.176,1.146,6.113,2.157C44.417,35.432,46.441,37.055,48.668,38.962"/>
<path fill="#245BA6" d="M213.025,48.465c-0.805,0.941-1.302,1.589-1.864,2.173c-5.628,5.843-17.71,5.833-23.354-0.007
	c-5.248-5.432-3.957-14.701,2.628-18.641c3.598-2.153,7.599-2.992,11.718-3.38c3.082-0.29,6.174-0.355,9.264-0.268
	c1.323,0.038,1.726-0.52,1.61-1.732c-0.28-2.962-1.681-5.154-4.531-6.137c-5.123-1.769-9.885-0.894-14.25,2.271
	c-1.645,1.193-1.617,1.178-3.041-0.342c-0.891-0.95-1.843-1.844-2.797-2.731c-1.105-1.026-1.13-1.448,0.019-2.42
	c2.663-2.255,5.708-3.771,9.097-4.578c4.276-1.018,8.575-1.306,12.912-0.354c7.508,1.646,11.606,6.225,11.822,13.963
	c0.246,8.836,0.102,17.684,0.152,26.526c0.006,0.971-0.451,1.279-1.32,1.276c-2.268-0.009-4.535-0.009-6.804,0
	c-0.897,0.003-1.312-0.37-1.273-1.314C213.064,51.479,213.025,50.185,213.025,48.465 M202.748,47.151
	c0.057,0,0.444,0.021,0.828-0.003c4.521-0.277,7.542-2.518,8.506-6.327c0.32-1.267,0.344-2.571,0.41-3.872
	c0.058-1.106-0.439-1.465-1.471-1.405c-2.261,0.132-4.531,0.15-6.784,0.36c-2.458,0.229-4.858,0.765-6.97,2.163
	c-2.899,1.918-2.984,5.562-0.178,7.625C198.677,46.859,200.486,47.24,202.748,47.151"/>
<path fill="#245BA6" d="M153.098,18.649c0.497-0.026,0.564-0.288,0.682-0.479c3.275-5.355,8.227-7.055,14.164-6.286
	c8.124,1.052,12.769,6.437,12.812,14.68c0.047,8.498,0.061,16.997,0.083,25.496c0.005,1.907-0.175,2.097-2.06,2.015
	c-2.074-0.091-4.146-0.103-6.221,0c-2.035,0.102-2.156-0.026-2.157-2.028c-0.004-6.712-0.006-13.425,0.001-20.137
	c0.002-1.649-0.188-3.276-0.574-4.873c-1.283-5.32-6.564-7.58-11.396-4.896c-3.232,1.795-4.701,4.708-4.764,8.238
	c-0.126,6.952-0.053,13.907-0.061,20.861c0,0.434,0.003,0.869,0.023,1.303c0.053,1.104-0.458,1.6-1.566,1.543
	c-2.459-0.125-4.922-0.145-7.38,0.004c-1.121,0.068-1.522-0.36-1.515-1.508c0.042-6.375,0.021-12.75,0.021-19.125
	s0.021-12.751-0.021-19.126c-0.008-1.097,0.27-1.59,1.445-1.561c2.365,0.059,4.733,0.047,7.1,0.005
	c1.082-0.019,1.444,0.433,1.398,1.48C153.049,15.694,153.098,17.135,153.098,18.649"/>
<path fill="#245BA6" d="M129.563,47.585c-0.324,0.42-0.447,0.543-0.528,0.691c-2.858,5.203-7.529,6.892-13.128,6.763
	c-8.368-0.192-13.91-5.984-14.03-14.852c-0.117-8.599-0.058-17.201-0.119-25.801c-0.008-1.21,0.457-1.633,1.622-1.611
	c2.415,0.044,4.831,0.056,7.244-0.005c1.219-0.031,1.568,0.457,1.563,1.633c-0.027,7.007-0.002,14.013,0.033,21.02
	c0.008,1.449,0.221,2.888,0.56,4.3c1.312,5.444,6.786,7.717,11.618,4.81c3.259-1.961,4.561-4.999,4.575-8.662
	c0.028-7.055,0.007-14.111,0.009-21.167c0.002-1.788,0.121-1.91,1.872-1.915c2.363-0.007,4.727,0.035,7.089-0.018
	c1.129-0.025,1.502,0.389,1.5,1.527c-0.032,12.709-0.035,25.419,0.001,38.128c0.004,1.283-0.448,1.75-1.691,1.663
	c-2.218-0.156-4.442-0.15-6.659,0.001c-1.213,0.083-1.624-0.402-1.553-1.602C129.631,50.976,129.563,49.451,129.563,47.585"/>
<path fill="#245BA6" d="M97.733,41.15c1.281,7.39-3.541,13.39-10.751,13.836c-3.001,0.186-5.84-0.354-8.574-1.637
	c-4.543-2.133-5.809-6.028-5.83-10.603c-0.027-5.941-0.005-11.882-0.008-17.822c-0.001-1.867-0.081-1.944-1.969-1.947
	c-2.174-0.003-4.35-0.048-6.522,0.023c-1.098,0.036-1.589-0.26-1.558-1.446c0.064-2.461,0.067-4.927-0.002-7.389
	c-0.031-1.13,0.455-1.409,1.465-1.391c2.223,0.042,4.448-0.052,6.667,0.037c1.363,0.055,1.88-0.331,1.83-1.788
	c-0.108-3.186,0.004-6.378-0.046-9.567c-0.018-1.144,0.383-1.564,1.519-1.436c3.781,0.426,8.408,3.084,8.649,8.239
	c0.049,1.061,0.082,2.128,0.025,3.187c-0.053,1.001,0.309,1.378,1.328,1.356c2.464-0.05,4.931,0.029,7.394-0.036
	c1.209-0.032,1.613,0.419,1.579,1.608c-0.067,2.414-0.044,4.833-0.008,7.248c0.016,0.985-0.343,1.386-1.358,1.366
	c-2.464-0.047-4.93,0.005-7.394-0.023c-0.972-0.012-1.419,0.372-1.411,1.362c0.039,4.827-0.064,9.66,0.118,14.482
	c0.18,4.795,4.019,7.538,8.735,6.508C94.116,44.772,96.143,43.501,97.733,41.15"/>
<path fill="#245BA6" d="M259.754,39.052v5.794c-1.12,4.677-4.276,7.498-8.638,8.932c-6.133,2.016-12.318,2.038-18.441-0.236
	c-2.221-0.825-4.039-2.217-5.727-3.837c-0.688-0.66-0.652-1.163,0.037-1.792c1.676-1.529,3.334-3.077,4.949-4.668
	c0.855-0.843,1.455-0.743,2.273,0.113c3.155,3.301,6.894,4.855,11.498,3.561c0.756-0.212,1.445-0.548,2.074-1
	c2.618-1.88,2.463-5.018-0.352-6.588c-2.352-1.313-4.98-1.771-7.578-2.293c-1.514-0.305-3.004-0.681-4.471-1.166
	c-8.074-2.667-9.137-9.404-7.009-15.39c1.348-3.79,4.306-6.004,7.965-7.235c5.794-1.948,11.561-1.771,17.214,0.682
	c1.719,0.745,3.109,1.911,4.393,3.245c0.664,0.689,0.729,1.269-0.035,1.94c-1.705,1.498-3.398,3.007-5.045,4.566
	c-0.854,0.81-1.373,0.417-2.027-0.261c-2.755-2.853-6.023-3.866-9.873-2.594c-0.408,0.135-0.806,0.327-1.181,0.542
	c-1.282,0.733-1.931,1.839-1.897,3.332c0.032,1.458,0.917,2.281,2.135,2.82c2.621,1.16,5.444,1.608,8.209,2.261
	c2.496,0.589,4.93,1.332,7.091,2.784C257.663,34.137,259.251,36.223,259.754,39.052"/>
<path fill="#245BA6" d="M39.702,15.887c-1.616,2.327-3.123,4.386-4.502,6.527c-0.805,1.248-1.472,2.599-2.072,3.959
	c-0.375,0.85-0.829,1.189-1.76,1.022c-2.726-0.491-5.461-0.469-8.196-0.025c-0.551,0.089-1.162,0.296-1.472-0.471
	c-1.59-3.921-4.081-7.296-6.655-10.761c1.344-0.548,2.565-0.138,3.73,0.087c2.748,0.531,5.2,1.71,7.209,3.722
	c1.203,1.204,1.483,1.177,2.739,0.021C31.759,17.173,35.328,15.795,39.702,15.887"/>
<path fill="#2E62AB" d="M27.087,41.325c-1.002-3.193-2.01-6.384-3.003-9.58c-0.201-0.647,0.074-1.025,0.751-1.09
	c1.585-0.153,3.169-0.149,4.752,0.024c0.7,0.077,1.059,0.395,0.82,1.158c-0.989,3.162-1.969,6.328-2.953,9.491
	C27.332,41.327,27.209,41.326,27.087,41.325"/>
<path fill="#2E62AB" d="M27.277,17.155c-1.086-0.756-2.219-1.359-3.098-2.22c-0.647-0.634,0.058-1.442,0.331-2.133
	c0.516-1.305,1.201-2.521,1.989-3.683c0.537-0.791,1.005-0.765,1.538,0.01c0.991,1.439,1.743,2.994,2.376,4.616
	c0.264,0.674,0.208,1.165-0.476,1.58C29.039,15.872,28.198,16.515,27.277,17.155"/>
<path fill="#2E62AB" d="M43.388,31.175c-2.3-1.046-4.516-1.95-6.843-2.542c-0.607-0.155-0.846-0.443-0.481-1.017
	c0.669-1.052,1.339-2.104,2.037-3.137c0.262-0.388,0.597-0.524,1.107-0.278C41.316,25.214,43.463,28.661,43.388,31.175"/>
<path fill="#2E62AB" d="M10.691,30.177c0.463-2.639,2.15-4.423,4.232-5.916c0.357-0.257,0.737-0.152,1.032,0.174
	c0.16,0.177,0.324,0.359,0.45,0.562c0.632,1.018,1.852,2.126,1.724,3.044c-0.152,1.091-1.962,0.846-2.993,1.339
	c-1.165,0.558-2.408,0.95-3.601,1.455C10.812,31.141,10.548,30.96,10.691,30.177"/>
<text transform="matrix(1 0 0 1 1.0996 74.9453)" fill="#0460AB" font-family="'WorkSans-Medium'" font-size="15.2349">Performance Management System</text>
</svg>
